<svg width="60" height="72" viewBox="0 0 60 72" fill="none" xmlns="http://www.w3.org/2000/svg">
<path d="M22.8127 43.3181H26.842V56.8724C26.842 60.2177 28.8038 62.3315 32.0328 62.3315C35.3663 62.3315 37.5771 59.976 38.9639 57.519L38.7909 57.3481C38.1793 58.0109 37.4387 58.5452 36.6134 58.9192C35.7881 59.2932 34.895 59.4992 33.9873 59.525C31.6009 59.525 30.5302 58.0426 30.5302 55.1425L30.5209 43.3181H37.8126L38.4925 40.6414H30.521V35.7943L22.8127 43.1999V43.3181ZM29.7258 11.4257C32.3212 11.4257 34.0485 13.3325 36.1459 15.6342V11.2116C34.3175 10.2426 32.2831 9.71392 30.2084 9.66861C26.4583 9.66861 23.4374 11.9316 23.4374 15.6343C23.4374 18.3086 25.1612 19.7614 27.1405 21.0986L30.9946 23.6702C32.8698 24.9043 33.8208 26.046 33.8208 27.4859C33.8257 27.8833 33.7471 28.2774 33.59 28.6434C33.4329 29.0093 33.2008 29.3392 32.9081 29.6121C32.6155 29.885 32.2687 30.095 31.8898 30.229C31.5108 30.363 31.1078 30.4179 30.7063 30.3904C27.7071 30.3904 26.2076 28.568 23.5418 25.6114V30.4455C25.4864 31.7533 27.777 32.4686 30.1295 32.5027C30.9988 32.5432 31.8676 32.4125 32.6852 32.118C33.5029 31.8236 34.253 31.3715 34.8918 30.7879C35.5306 30.2043 36.0454 29.501 36.4062 28.719C36.7669 27.9369 36.9664 27.0918 36.993 26.2329C36.993 23.4558 35.8594 22.1266 33.3594 20.4808L29.3798 17.8611C27.8172 16.8325 26.496 15.5992 26.496 14.1593C26.5067 13.7637 26.6013 13.3746 26.7736 13.0173C26.9459 12.66 27.1922 12.3423 27.4965 12.0847C27.8008 11.8271 28.1564 11.6354 28.5404 11.5219C28.9244 11.4084 29.3282 11.3756 29.7258 11.4257V11.4257ZM9.02261 20.8453V53.4508C9.02261 59.005 6.35414 60.5829 1.45833 62.2287H22.2918C17.3959 60.5829 14.7742 59.0341 14.7742 53.4799V15.6284C14.7427 13.085 14.8819 10.5423 15.1908 8.017C10.816 10.5886 6.97919 12.857 0 13.577V14.5028C7.50015 14.5028 9.02261 16.4224 9.02261 20.8453ZM21.5626 0H0.625047V2.09453H20.2083C42.0835 2.09453 51.5203 15.7789 51.5203 35.116C51.5203 57.4361 41.4584 69.8848 22.1876 69.8848H0.93757V72H22.3958C50.0002 72 60 53.4856 60 35.4857C60 18.103 49.3751 0 21.5626 0Z" fill="black"/>
</svg>
